<svg width="47" height="48" viewBox="0 0 47 48" fill="none" xmlns="http://www.w3.org/2000/svg">
<g filter="url(#filter0_d_9_113)">
<path fill-rule="evenodd" clip-rule="evenodd" d="M11.7551 7.83824C10.5835 9.00981 10.5835 10.8954 10.5835 14.6667V25.3333C10.5835 29.1046 10.5835 30.9902 11.7551 32.1618C12.9266 33.3333 14.8123 33.3333 18.5835 33.3333H28.4168C32.1881 33.3333 34.0737 33.3333 35.2453 32.1618C36.4168 30.9902 36.4168 29.1046 36.4168 25.3333V14.6667C36.4168 11.5745 36.4168 9.74998 35.771 8.54738V26.6667C35.532 26.6667 35.4125 26.6667 35.2976 26.66C34.3752 26.6069 33.4995 26.236 32.8195 25.6105C32.7348 25.5325 32.6517 25.4467 32.4854 25.2751L31.5047 24.2627C30.1882 22.9038 29.5299 22.2243 28.706 22.2081C28.6799 22.2076 28.6538 22.2076 28.6277 22.2081C27.8038 22.2243 27.1455 22.9037 25.829 24.2627L25.829 24.2627L25.6171 24.4814L25.6171 24.4814C24.6613 25.4681 24.1834 25.9614 23.6535 25.8606C23.1237 25.7598 22.8603 25.1254 22.3335 23.8567L21.9584 22.9533C20.9049 20.4158 20.3782 19.147 19.3185 18.9454C18.2588 18.7438 17.3029 19.7305 15.3912 21.7039L12.521 24.6667V7.28271C12.2335 7.42991 11.981 7.61229 11.7551 7.83824Z" fill="white"/>
<path d="M11.5835 14.6667C11.5835 12.7529 11.5856 11.418 11.721 10.4109C11.8526 9.43254 12.0932 8.91445 12.4622 8.54543C12.8312 8.17641 13.3493 7.93582 14.3277 7.80428C15.3348 7.66887 16.6696 7.66675 18.5835 7.66675H28.4168C30.3307 7.66675 31.6655 7.66887 32.6727 7.80428C33.651 7.93582 34.1691 8.17641 34.5381 8.54543C34.9072 8.91445 35.1478 9.43254 35.2793 10.4109C35.4147 11.418 35.4168 12.7529 35.4168 14.6667V25.3334C35.4168 27.2473 35.4147 28.5821 35.2793 29.5893C35.1478 30.5676 34.9072 31.0857 34.5381 31.4547C34.1691 31.8238 33.651 32.0643 32.6727 32.1959C31.6655 32.3313 30.3307 32.3334 28.4168 32.3334H18.5835C16.6696 32.3334 15.3348 32.3313 14.3277 32.1959C13.3493 32.0643 12.8312 31.8238 12.4622 31.4547L11.7723 32.1446L12.4622 31.4547C12.0932 31.0857 11.8526 30.5676 11.721 29.5893C11.5856 28.5821 11.5835 27.2473 11.5835 25.3334V14.6667Z" stroke="white" stroke-width="2"/>
<ellipse cx="27.3748" cy="15.9999" rx="2.58333" ry="2.66667" fill="white"/>
</g>
<defs>
<filter id="filter0_d_9_113" x="-2" y="-2" width="51" height="52" filterUnits="userSpaceOnUse" color-interpolation-filters="sRGB">
<feFlood flood-opacity="0" result="BackgroundImageFix"/>
<feColorMatrix in="SourceAlpha" type="matrix" values="0 0 0 0 0 0 0 0 0 0 0 0 0 0 0 0 0 0 127 0" result="hardAlpha"/>
<feOffset dy="4"/>
<feGaussianBlur stdDeviation="5"/>
<feComposite in2="hardAlpha" operator="out"/>
<feColorMatrix type="matrix" values="0 0 0 0 0 0 0 0 0 0 0 0 0 0 0 0 0 0 0.25 0"/>
<feBlend mode="normal" in2="BackgroundImageFix" result="effect1_dropShadow_9_113"/>
<feBlend mode="normal" in="SourceGraphic" in2="effect1_dropShadow_9_113" result="shape"/>
</filter>
</defs>
</svg>
