<svg width="42" height="44" viewBox="0 0 42 44" fill="none" xmlns="http://www.w3.org/2000/svg">
<g filter="url(#filter0_d_6_69)">
<path d="M30.4375 11.6719C30.2969 10.3125 29.8828 9.28906 29.1953 8.60156C28.5078 7.89844 27.4531 7.54688 26.0312 7.54688H22.6797V25.8281C22.6797 26.5625 22.7109 27.1562 22.7734 27.6094C22.8359 28.0625 22.9844 28.4219 23.2188 28.6875C23.4531 28.9375 23.7891 29.1094 24.2266 29.2031C24.6797 29.2812 25.2812 29.3203 26.0312 29.3203V30H15.9062V29.3203C16.6562 29.3203 17.25 29.2734 17.6875 29.1797C18.125 29.0859 18.4609 28.9141 18.6953 28.6641C18.9297 28.3984 19.0781 28.0391 19.1406 27.5859C19.2188 27.1328 19.2578 26.5469 19.2578 25.8281V7.54688H16.375C15.625 7.54688 14.9688 7.61719 14.4062 7.75781C13.8438 7.88281 13.3672 8.10156 12.9766 8.41406C12.6016 8.72656 12.3047 9.14844 12.0859 9.67969C11.8828 10.2109 11.75 10.875 11.6875 11.6719H10.8672L11.1016 6.04688H30.9766L31.2109 11.6719H30.4375Z" fill="white"/>
</g>
<defs>
<filter id="filter0_d_6_69" x="0.867188" y="0.046875" width="40.3438" height="43.9531" filterUnits="userSpaceOnUse" color-interpolation-filters="sRGB">
<feFlood flood-opacity="0" result="BackgroundImageFix"/>
<feColorMatrix in="SourceAlpha" type="matrix" values="0 0 0 0 0 0 0 0 0 0 0 0 0 0 0 0 0 0 127 0" result="hardAlpha"/>
<feOffset dy="4"/>
<feGaussianBlur stdDeviation="5"/>
<feComposite in2="hardAlpha" operator="out"/>
<feColorMatrix type="matrix" values="0 0 0 0 0 0 0 0 0 0 0 0 0 0 0 0 0 0 0.25 0"/>
<feBlend mode="normal" in2="BackgroundImageFix" result="effect1_dropShadow_6_69"/>
<feBlend mode="normal" in="SourceGraphic" in2="effect1_dropShadow_6_69" result="shape"/>
</filter>
</defs>
</svg>
