<svg width="31" height="38" viewBox="0 0 31 38" fill="none" xmlns="http://www.w3.org/2000/svg">
<g filter="url(#filter0_d_9_281)">
<path d="M17.0134 4H11.6252C9.18957 4 7.97178 4 7.21514 4.78105C6.4585 5.5621 6.4585 6.81918 6.4585 9.33333V22.6667C6.4585 25.1808 6.4585 26.4379 7.21514 27.219C7.97178 28 9.18957 28 11.6252 28H19.3752C21.8108 28 23.0285 28 23.7852 27.219C24.5418 26.4379 24.5418 25.1808 24.5418 22.6667V11.7712C24.5418 11.2262 24.5418 10.9537 24.4435 10.7087C24.3452 10.4637 24.1585 10.271 23.7852 9.88562L18.8401 4.78105C18.4668 4.39567 18.2801 4.20299 18.0428 4.10149C17.8054 4 17.5414 4 17.0134 4Z" stroke="white" stroke-width="3"/>
<path d="M17.8965 18.7744L13.7856 16.9558C12.7628 16.5033 11.625 17.2778 11.625 18.4264V21.5735C11.625 22.7222 12.7628 23.4966 13.7856 23.0441L17.8965 21.2255C18.9403 20.7637 18.9403 19.2362 17.8965 18.7744Z" stroke="white" stroke-width="3" stroke-linecap="round" stroke-linejoin="round"/>
<path d="M16.7915 4V9.33333C16.7915 10.5904 16.7915 11.219 17.1698 11.6095C17.5481 12 18.157 12 19.3748 12H24.5415" stroke="white" stroke-width="3"/>
</g>
<defs>
<filter id="filter0_d_9_281" x="-4" y="0" width="39" height="40" filterUnits="userSpaceOnUse" color-interpolation-filters="sRGB">
<feFlood flood-opacity="0" result="BackgroundImageFix"/>
<feColorMatrix in="SourceAlpha" type="matrix" values="0 0 0 0 0 0 0 0 0 0 0 0 0 0 0 0 0 0 127 0" result="hardAlpha"/>
<feOffset dy="4"/>
<feGaussianBlur stdDeviation="2"/>
<feComposite in2="hardAlpha" operator="out"/>
<feColorMatrix type="matrix" values="0 0 0 0 0 0 0 0 0 0 0 0 0 0 0 0 0 0 0.25 0"/>
<feBlend mode="normal" in2="BackgroundImageFix" result="effect1_dropShadow_9_281"/>
<feBlend mode="normal" in="SourceGraphic" in2="effect1_dropShadow_9_281" result="shape"/>
</filter>
</defs>
</svg>
